<?xml version="1.0" encoding="UTF-8" standalone="no"?>
<svg
   style="enable-background:new"
   height="512"
   viewBox="0 0 512.40002 512"
   width="512.4"
   version="1.1"
   id="svg35"
   sodipodi:docname="logo.svg"
   inkscape:version="1.2 (0838b55d0b, 2022-06-10, custom)"
   inkscape:export-filename="../89354120/splash.png"
   inkscape:export-xdpi="97.125"
   inkscape:export-ydpi="97.125"
   xmlns:inkscape="http://www.inkscape.org/namespaces/inkscape"
   xmlns:sodipodi="http://sodipodi.sourceforge.net/DTD/sodipodi-0.dtd"
   xmlns="http://www.w3.org/2000/svg"
   xmlns:svg="http://www.w3.org/2000/svg">
  <sodipodi:namedview
     id="namedview37"
     pagecolor="#505050"
     bordercolor="#eeeeee"
     borderopacity="1"
     inkscape:pageshadow="0"
     inkscape:pageopacity="0"
     inkscape:pagecheckerboard="0"
     showgrid="false"
     inkscape:zoom="0.75878906"
     inkscape:cx="91.593308"
     inkscape:cy="341.33333"
     inkscape:window-width="1920"
     inkscape:window-height="949"
     inkscape:window-x="0"
     inkscape:window-y="0"
     inkscape:window-maximized="1"
     inkscape:current-layer="svg35"
     showguides="true"
     inkscape:guide-bbox="true"
     inkscape:showpageshadow="0"
     inkscape:deskcolor="#505050">
    <sodipodi:guide
       position="250.678,440.24459"
       orientation="1,0"
       id="guide870"
       inkscape:locked="false" />
    <sodipodi:guide
       position="302.86375,261.322"
       orientation="0,-1"
       id="guide872"
       inkscape:locked="false" />
  </sodipodi:namedview>
  <defs
     id="defs7">
    <linearGradient
       id="a"
       y2="494"
       gradientUnits="userSpaceOnUse"
       x2="256"
       gradientTransform="matrix(1 0 0 1.076 0 -19.36)"
       y1="18"
       x1="256">
      <stop
         style="stop-color:#eaeaea"
         offset="0"
         id="stop2" />
      <stop
         style="stop-color:#f4f4f4"
         offset="1"
         id="stop4" />
    </linearGradient>
  </defs>
  <rect
     style="color:#000000;enable-background:accumulate;fill:#501644;fill-opacity:1"
     height="512"
     width="512"
     y="0"
     x="0"
     id="rect9"
     inkscape:export-filename="/home/ivo/ubtouchApps/instaweb/assets/splash.png"
     inkscape:export-xdpi="97.125"
     inkscape:export-ydpi="97.125" />
  <path
     d="m-208.3 605.6c-7.842 0-14.55 5.029-17.32 12.19-0.0612-0.00067-0.1208 0-0.1823 0-7.088 0-12.83 6.002-12.83 13.41 0 7.404 5.746 13.41 12.83 13.41h17.5 16.33c5.155 0 9.333-4.365 9.333-9.75 0-4.543-2.974-8.363-7-9.445 0.001-0.1029 0-0.2015 0-0.3047 0-10.77-8.357-19.5-18.67-19.5z"
     style="stroke-width:4;color:#000000;stroke:#ccc;enable-background:accumulate;display:none;fill:#fff"
     id="path19" />
  <path
     style="stroke-width:4;color:#000000;stroke:#ccc;enable-background:accumulate;display:none;fill:none"
     d="m288.9 828.1c-6.349 0-11.78 4.072-14.02 9.867-0.0496-0.00055-0.0978 0-0.1476 0-5.738 0-10.39 4.86-10.39 10.85 0 5.995 4.652 10.85 10.39 10.85h14.17 13.22c4.173 0 7.557-3.534 7.557-7.894 0-3.678-2.408-6.771-5.667-7.647 0.001-0.0833 0-0.1632 0-0.2467 0-8.719-6.766-15.79-15.11-15.79z"
     id="path21" />
  <g
     style="display:none"
     transform="translate(0 -558.4)"
     id="g33">
    <path
       d="m166.1 576.4h179.9c145.3 0 166.1 20.74 166.1 165.9v144.2c0 145.2-20.76 165.9-166.1 165.9h-179.9c-145.3 0-166.1-20-166.1-165.5v-144.2c0-145.2 20.76-165.9 166.1-165.9z"
       style="stroke:#00f;fill:#00f;display:inline;fill-opacity:.08118"
       id="path23" />
    <circle
       style="stroke-width:.8333;fill-opacity:.08118;color:#000000;stroke:#00f;enable-background:accumulate;display:inline;fill:#00f"
       cx="256"
       transform="matrix(1.2 0 0 1.2 -51.2 528.8)"
       cy="238"
       r="120"
       id="circle25" />
    <rect
       style="stroke-linejoin:round;fill-opacity:.08118;color:#000000;stroke:#00f;stroke-linecap:round;enable-background:accumulate;display:inline;fill:#00f"
       height="272"
       width="272"
       y="678.4"
       x="120"
       id="rect27" />
    <rect
       style="stroke-linejoin:round;fill-opacity:.08118;color:#000000;stroke:#00f;stroke-linecap:round;enable-background:accumulate;display:inline;fill:#00f"
       height="240"
       width="304"
       y="694.4"
       x="104"
       id="rect29" />
    <rect
       style="stroke-linejoin:round;fill-opacity:.08118;color:#000000;stroke:#00f;stroke-linecap:round;enable-background:accumulate;display:inline;fill:#00f"
       height="304"
       width="240"
       y="662.4"
       x="136"
       id="rect31" />
  </g>
  <path
     d="m 162.15854,37.4169 c -74.08139,0 -134.364395,58.028602 -134.364395,129.33958 v 179.08556 c 0,71.31113 60.283005,129.3396 134.364395,129.3396 h 186.04301 c 74.08153,0 134.36444,-58.02847 134.36444,-129.3396 V 166.75648 c 0,-71.310978 -60.28291,-129.33958 -134.36444,-129.33958 z m 0,19.898382 h 186.04301 c 62.90818,0 113.69298,48.885588 113.69298,109.441198 v 179.08556 c 0,60.55572 -50.7848,109.44121 -113.69298,109.44121 H 162.15854 c -62.908176,0 -113.692958,-48.88549 -113.692958,-109.44121 V 166.75648 c 0,-60.55561 50.784782,-109.441198 113.692958,-109.441198 z m 217.05019,59.695208 a 20.671447,19.898399 0 0 0 -20.67144,19.89838 20.671447,19.898399 0 0 0 20.67144,19.89842 20.671447,19.898399 0 0 0 20.67145,-19.89842 20.671447,19.898399 0 0 0 -20.67145,-19.89838 z m -124.02866,29.8476 c -62.66841,0 -113.69297,49.1163 -113.69297,109.44118 0,60.32488 51.02456,109.4412 113.69297,109.4412 62.66848,0 113.69296,-49.11632 113.69296,-109.4412 0,-60.32488 -51.02448,-109.44118 -113.69296,-109.44118 z m 0,19.89839 c 51.49678,0 93.02148,39.9718 93.02148,89.54279 0,49.57098 -41.5247,89.54277 -93.02148,89.54277 -51.4967,0 -93.02153,-39.97179 -93.02153,-89.54277 0,-49.57099 41.52483,-89.54279 93.02153,-89.54279 z"
     id="path220"
     style="fill:#ffffff;stroke-width:1" />
</svg>
