<?xml version="1.0" encoding="UTF-8" standalone="no"?>
<svg
   style="enable-background:new"
   height="512"
   viewBox="0 0 512.40002 512"
   width="512.4"
   version="1.1"
   id="svg35"
   sodipodi:docname="logo.svg"
   inkscape:version="1.1 (35044de2a8, 2021-06-18)"
   inkscape:export-filename="/home/ivo/ubtouchApps/instaweb/assets/splash.png"
   inkscape:export-xdpi="97.125"
   inkscape:export-ydpi="97.125"
   xmlns:inkscape="http://www.inkscape.org/namespaces/inkscape"
   xmlns:sodipodi="http://sodipodi.sourceforge.net/DTD/sodipodi-0.dtd"
   xmlns="http://www.w3.org/2000/svg"
   xmlns:svg="http://www.w3.org/2000/svg">
  <sodipodi:namedview
     id="namedview37"
     pagecolor="#505050"
     bordercolor="#eeeeee"
     borderopacity="1"
     inkscape:pageshadow="0"
     inkscape:pageopacity="0"
     inkscape:pagecheckerboard="0"
     showgrid="false"
     inkscape:zoom="0.53654489"
     inkscape:cx="176.12692"
     inkscape:cy="262.79255"
     inkscape:window-width="1920"
     inkscape:window-height="949"
     inkscape:window-x="0"
     inkscape:window-y="27"
     inkscape:window-maximized="1"
     inkscape:current-layer="svg35"
     showguides="true"
     inkscape:guide-bbox="true">
    <sodipodi:guide
       position="250.678,440.24459"
       orientation="1,0"
       id="guide870" />
    <sodipodi:guide
       position="302.86375,261.322"
       orientation="0,-1"
       id="guide872" />
  </sodipodi:namedview>
  <defs
     id="defs7">
    <linearGradient
       id="a"
       y2="494"
       gradientUnits="userSpaceOnUse"
       x2="256"
       gradientTransform="matrix(1 0 0 1.076 0 -19.36)"
       y1="18"
       x1="256">
      <stop
         style="stop-color:#eaeaea"
         offset="0"
         id="stop2" />
      <stop
         style="stop-color:#f4f4f4"
         offset="1"
         id="stop4" />
    </linearGradient>
  </defs>
  <rect
     style="color:#000000;enable-background:accumulate;fill:#501644;fill-opacity:1"
     height="512"
     width="512"
     y="0"
     x="0"
     id="rect9"
     inkscape:export-filename="/home/ivo/ubtouchApps/instaweb/assets/splash.png"
     inkscape:export-xdpi="97.125"
     inkscape:export-ydpi="97.125" />
  <g
     transform="translate(0,18)"
     id="g17"
     style="fill:#d42aff">
    <path
       style="color:#000000;opacity:0.3;fill:#d42aff;enable-background:accumulate"
       d="M 256,256 108.2,512 H 512 V 256 H 389.3 Z"
       transform="translate(0,-18)"
       id="path13" />
    <path
       style="color:#000000;opacity:0.15;fill:#d42aff;enable-background:accumulate"
       d="M 0,0 V 512 H 108.2 L 184.6,379.7 256,256 187.1,136 186.9,136.3 108.2,0 Z"
       transform="translate(0,-18)"
       id="path15" />
  </g>
  <path
     d="m-208.3 605.6c-7.842 0-14.55 5.029-17.32 12.19-0.0612-0.00067-0.1208 0-0.1823 0-7.088 0-12.83 6.002-12.83 13.41 0 7.404 5.746 13.41 12.83 13.41h17.5 16.33c5.155 0 9.333-4.365 9.333-9.75 0-4.543-2.974-8.363-7-9.445 0.001-0.1029 0-0.2015 0-0.3047 0-10.77-8.357-19.5-18.67-19.5z"
     style="stroke-width:4;color:#000000;stroke:#ccc;enable-background:accumulate;display:none;fill:#fff"
     id="path19" />
  <path
     style="stroke-width:4;color:#000000;stroke:#ccc;enable-background:accumulate;display:none;fill:none"
     d="m288.9 828.1c-6.349 0-11.78 4.072-14.02 9.867-0.0496-0.00055-0.0978 0-0.1476 0-5.738 0-10.39 4.86-10.39 10.85 0 5.995 4.652 10.85 10.39 10.85h14.17 13.22c4.173 0 7.557-3.534 7.557-7.894 0-3.678-2.408-6.771-5.667-7.647 0.001-0.0833 0-0.1632 0-0.2467 0-8.719-6.766-15.79-15.11-15.79z"
     id="path21" />
  <g
     style="display:none"
     transform="translate(0 -558.4)"
     id="g33">
    <path
       d="m166.1 576.4h179.9c145.3 0 166.1 20.74 166.1 165.9v144.2c0 145.2-20.76 165.9-166.1 165.9h-179.9c-145.3 0-166.1-20-166.1-165.5v-144.2c0-145.2 20.76-165.9 166.1-165.9z"
       style="stroke:#00f;fill:#00f;display:inline;fill-opacity:.08118"
       id="path23" />
    <circle
       style="stroke-width:.8333;fill-opacity:.08118;color:#000000;stroke:#00f;enable-background:accumulate;display:inline;fill:#00f"
       cx="256"
       transform="matrix(1.2 0 0 1.2 -51.2 528.8)"
       cy="238"
       r="120"
       id="circle25" />
    <rect
       style="stroke-linejoin:round;fill-opacity:.08118;color:#000000;stroke:#00f;stroke-linecap:round;enable-background:accumulate;display:inline;fill:#00f"
       height="272"
       width="272"
       y="678.4"
       x="120"
       id="rect27" />
    <rect
       style="stroke-linejoin:round;fill-opacity:.08118;color:#000000;stroke:#00f;stroke-linecap:round;enable-background:accumulate;display:inline;fill:#00f"
       height="240"
       width="304"
       y="694.4"
       x="104"
       id="rect29" />
    <rect
       style="stroke-linejoin:round;fill-opacity:.08118;color:#000000;stroke:#00f;stroke-linecap:round;enable-background:accumulate;display:inline;fill:#00f"
       height="304"
       width="240"
       y="662.4"
       x="136"
       id="rect31" />
  </g>
  <path
     d="m 171.027,55.716396 c -63.43331,0 -115.051417,51.414764 -115.051417,114.598194 v 158.67444 c 0,63.18347 51.618107,114.59821 115.051417,114.59821 h 159.30199 c 63.43326,0 115.05141,-51.41474 115.05141,-114.59821 V 170.31459 c 0,-63.18343 -51.61815,-114.598194 -115.05141,-114.598194 z m 0,17.630508 h 159.30199 c 53.86602,0 97.35121,43.313876 97.35121,96.967686 v 158.67444 c 0,53.65383 -43.48519,96.96773 -97.35121,96.96773 H 171.027 c -53.866,0 -97.351206,-43.3139 -97.351206,-96.96773 V 170.31459 c 0,-53.65381 43.485206,-96.967686 97.351206,-96.967686 z m 168.1521,70.521976 c 0,9.73705 0,-9.73706 0,0 z m -88.5011,8.81522 c -53.66079,0 -97.3512,43.51832 -97.3512,96.96772 0,53.44939 43.69041,96.96772 97.3512,96.96772 53.66078,0 97.35121,-43.51833 97.35121,-96.96772 0,-53.4494 -43.69043,-96.96772 -97.35121,-96.96772 z m 0,17.63049 c 44.09487,0 79.65099,35.41607 79.65099,79.33723 0,43.92116 -35.55612,79.33721 -79.65099,79.33721 -44.09488,0 -79.651,-35.41605 -79.651,-79.33721 0,-43.92116 35.55612,-79.33723 79.651,-79.33723 z"
     id="path2"
     style="fill:#e3d7f4;stroke-width:0.999998"
     sodipodi:nodetypes="ssssssssssssssssssssssssssssss" />
</svg>
